<mxfile host="65bd71144e">
    <diagram id="MGUCYYEpIVHYCtV2hVzg" name="ページ1">
        <mxGraphModel dx="2270" dy="906" grid="1" gridSize="10" guides="1" tooltips="1" connect="1" arrows="1" fold="1" page="1" pageScale="1" pageWidth="827" pageHeight="1169" math="0" shadow="0">
            <root>
                <mxCell id="0"/>
                <mxCell id="1" parent="0"/>
                <mxCell id="468" style="edgeStyle=orthogonalEdgeStyle;rounded=0;orthogonalLoop=1;jettySize=auto;html=1;" edge="1" parent="1">
                    <mxGeometry relative="1" as="geometry">
                        <mxPoint x="400" y="530" as="targetPoint"/>
                        <mxPoint x="400" y="540" as="sourcePoint"/>
                    </mxGeometry>
                </mxCell>
                <mxCell id="557" value="利用者　users" style="shape=table;startSize=30;container=1;collapsible=1;childLayout=tableLayout;fixedRows=1;rowLines=0;fontStyle=1;align=center;resizeLast=1;spacing=8;fontSize=20;" vertex="1" parent="1">
                    <mxGeometry x="-360" y="720" width="210" height="220" as="geometry"/>
                </mxCell>
                <mxCell id="558" value="" style="shape=partialRectangle;collapsible=0;dropTarget=0;pointerEvents=0;fillColor=none;top=0;left=0;bottom=1;right=0;points=[[0,0.5],[1,0.5]];portConstraint=eastwest;fontSize=5;" vertex="1" parent="557">
                    <mxGeometry y="30" width="210" height="30" as="geometry"/>
                </mxCell>
                <mxCell id="559" value="PK" style="shape=partialRectangle;connectable=0;fillColor=none;top=0;left=0;bottom=0;right=0;fontStyle=1;overflow=hidden;fontSize=15;" vertex="1" parent="558">
                    <mxGeometry width="30" height="30" as="geometry"/>
                </mxCell>
                <mxCell id="560" value="利用者ID " style="shape=partialRectangle;connectable=0;fillColor=none;top=0;left=0;bottom=0;right=0;align=left;spacingLeft=6;fontStyle=5;overflow=hidden;fontSize=15;" vertex="1" parent="558">
                    <mxGeometry x="30" width="180" height="30" as="geometry"/>
                </mxCell>
                <mxCell id="561" value="" style="shape=partialRectangle;collapsible=0;dropTarget=0;pointerEvents=0;fillColor=none;top=0;left=0;bottom=0;right=0;points=[[0,0.5],[1,0.5]];portConstraint=eastwest;" vertex="1" parent="557">
                    <mxGeometry y="60" width="210" height="30" as="geometry"/>
                </mxCell>
                <mxCell id="562" value="" style="shape=partialRectangle;connectable=0;fillColor=none;top=0;left=0;bottom=0;right=0;editable=1;overflow=hidden;" vertex="1" parent="561">
                    <mxGeometry width="30" height="30" as="geometry"/>
                </mxCell>
                <mxCell id="563" value="氏名　          name" style="shape=partialRectangle;connectable=0;fillColor=none;top=0;left=0;bottom=0;right=0;align=left;spacingLeft=6;overflow=hidden;fontSize=15;" vertex="1" parent="561">
                    <mxGeometry x="30" width="180" height="30" as="geometry"/>
                </mxCell>
                <mxCell id="564" value="" style="shape=partialRectangle;collapsible=0;dropTarget=0;pointerEvents=0;fillColor=none;top=0;left=0;bottom=0;right=0;points=[[0,0.5],[1,0.5]];portConstraint=eastwest;" vertex="1" parent="557">
                    <mxGeometry y="90" width="210" height="30" as="geometry"/>
                </mxCell>
                <mxCell id="565" value="" style="shape=partialRectangle;connectable=0;fillColor=none;top=0;left=0;bottom=0;right=0;editable=1;overflow=hidden;" vertex="1" parent="564">
                    <mxGeometry width="30" height="30" as="geometry"/>
                </mxCell>
                <mxCell id="566" value="住所　          address" style="shape=partialRectangle;connectable=0;fillColor=none;top=0;left=0;bottom=0;right=0;align=left;spacingLeft=6;overflow=hidden;fontSize=15;" vertex="1" parent="564">
                    <mxGeometry x="30" width="180" height="30" as="geometry"/>
                </mxCell>
                <mxCell id="567" value="" style="shape=partialRectangle;collapsible=0;dropTarget=0;pointerEvents=0;fillColor=none;top=0;left=0;bottom=0;right=0;points=[[0,0.5],[1,0.5]];portConstraint=eastwest;" vertex="1" parent="557">
                    <mxGeometry y="120" width="210" height="30" as="geometry"/>
                </mxCell>
                <mxCell id="568" value="" style="shape=partialRectangle;connectable=0;fillColor=none;top=0;left=0;bottom=0;right=0;editable=1;overflow=hidden;" vertex="1" parent="567">
                    <mxGeometry width="30" height="30" as="geometry"/>
                </mxCell>
                <mxCell id="569" value="電話番号　   tel" style="shape=partialRectangle;connectable=0;fillColor=none;top=0;left=0;bottom=0;right=0;align=left;spacingLeft=6;overflow=hidden;fontSize=15;" vertex="1" parent="567">
                    <mxGeometry x="30" width="180" height="30" as="geometry"/>
                </mxCell>
                <mxCell id="570" value="予約　reserves" style="shape=table;startSize=30;container=1;collapsible=1;childLayout=tableLayout;fixedRows=1;rowLines=0;fontStyle=1;align=center;resizeLast=1;fontSize=20;" vertex="1" parent="1">
                    <mxGeometry x="10" y="720" width="330" height="200" as="geometry"/>
                </mxCell>
                <mxCell id="571" value="" style="shape=partialRectangle;collapsible=0;dropTarget=0;pointerEvents=0;fillColor=none;top=0;left=0;bottom=1;right=0;points=[[0,0.5],[1,0.5]];portConstraint=eastwest;" vertex="1" parent="570">
                    <mxGeometry y="30" width="330" height="40" as="geometry"/>
                </mxCell>
                <mxCell id="572" value="PK" style="shape=partialRectangle;connectable=0;fillColor=none;top=0;left=0;bottom=0;right=0;fontStyle=1;overflow=hidden;fontSize=15;" vertex="1" parent="571">
                    <mxGeometry width="30" height="40" as="geometry"/>
                </mxCell>
                <mxCell id="573" value="予約ID" style="shape=partialRectangle;connectable=0;fillColor=none;top=0;left=0;bottom=0;right=0;align=left;spacingLeft=6;fontStyle=5;overflow=hidden;fontSize=15;" vertex="1" parent="571">
                    <mxGeometry x="30" width="300" height="40" as="geometry"/>
                </mxCell>
                <mxCell id="574" value="" style="shape=partialRectangle;collapsible=0;dropTarget=0;pointerEvents=0;fillColor=none;top=0;left=0;bottom=0;right=0;points=[[0,0.5],[1,0.5]];portConstraint=eastwest;" vertex="1" parent="570">
                    <mxGeometry y="70" width="330" height="30" as="geometry"/>
                </mxCell>
                <mxCell id="575" value="FK" style="shape=partialRectangle;connectable=0;fillColor=none;top=0;left=0;bottom=0;right=0;editable=1;overflow=hidden;fontSize=15;" vertex="1" parent="574">
                    <mxGeometry width="30" height="30" as="geometry"/>
                </mxCell>
                <mxCell id="576" value="利用者ID                       user_id" style="shape=partialRectangle;connectable=0;fillColor=none;top=0;left=0;bottom=0;right=0;align=left;spacingLeft=6;overflow=hidden;fontSize=15;" vertex="1" parent="574">
                    <mxGeometry x="30" width="300" height="30" as="geometry"/>
                </mxCell>
                <mxCell id="577" value="" style="shape=partialRectangle;collapsible=0;dropTarget=0;pointerEvents=0;fillColor=none;top=0;left=0;bottom=0;right=0;points=[[0,0.5],[1,0.5]];portConstraint=eastwest;" vertex="1" parent="570">
                    <mxGeometry y="100" width="330" height="30" as="geometry"/>
                </mxCell>
                <mxCell id="578" value="" style="shape=partialRectangle;connectable=0;fillColor=none;top=0;left=0;bottom=0;right=0;editable=1;overflow=hidden;" vertex="1" parent="577">
                    <mxGeometry width="30" height="30" as="geometry"/>
                </mxCell>
                <mxCell id="579" value="人数                              number_of_people" style="shape=partialRectangle;connectable=0;fillColor=none;top=0;left=0;bottom=0;right=0;align=left;spacingLeft=6;overflow=hidden;fontSize=15;" vertex="1" parent="577">
                    <mxGeometry x="30" width="300" height="30" as="geometry"/>
                </mxCell>
                <mxCell id="580" value="" style="shape=partialRectangle;collapsible=0;dropTarget=0;pointerEvents=0;fillColor=none;top=0;left=0;bottom=0;right=0;points=[[0,0.5],[1,0.5]];portConstraint=eastwest;fontSize=15;" vertex="1" parent="570">
                    <mxGeometry y="130" width="330" height="30" as="geometry"/>
                </mxCell>
                <mxCell id="581" value="" style="shape=partialRectangle;connectable=0;fillColor=none;top=0;left=0;bottom=0;right=0;editable=1;overflow=hidden;" vertex="1" parent="580">
                    <mxGeometry width="30" height="30" as="geometry"/>
                </mxCell>
                <mxCell id="582" value="チェックイン日付        check_in_day" style="shape=partialRectangle;connectable=0;fillColor=none;top=0;left=0;bottom=0;right=0;align=left;spacingLeft=6;overflow=hidden;fontSize=15;" vertex="1" parent="580">
                    <mxGeometry x="30" width="300" height="30" as="geometry"/>
                </mxCell>
                <mxCell id="588" value="" style="shape=partialRectangle;collapsible=0;dropTarget=0;pointerEvents=0;fillColor=none;top=0;left=0;bottom=0;right=0;points=[[0,0.5],[1,0.5]];portConstraint=eastwest;" vertex="1" parent="570">
                    <mxGeometry y="160" width="330" height="30" as="geometry"/>
                </mxCell>
                <mxCell id="589" value="" style="shape=partialRectangle;connectable=0;fillColor=none;top=0;left=0;bottom=0;right=0;editable=1;overflow=hidden;" vertex="1" parent="588">
                    <mxGeometry width="30" height="30" as="geometry"/>
                </mxCell>
                <mxCell id="590" value="チェックアウト日付     check_out_day" style="shape=partialRectangle;connectable=0;fillColor=none;top=0;left=0;bottom=0;right=0;align=left;spacingLeft=6;overflow=hidden;fontSize=15;" vertex="1" parent="588">
                    <mxGeometry x="30" width="300" height="30" as="geometry"/>
                </mxCell>
                <mxCell id="592" value="予約明細 details" style="shape=table;startSize=30;container=1;collapsible=1;childLayout=tableLayout;fixedRows=1;rowLines=0;fontStyle=1;align=center;resizeLast=1;fontSize=20;" vertex="1" parent="1">
                    <mxGeometry x="490" y="720" width="240" height="200" as="geometry"/>
                </mxCell>
                <mxCell id="593" value="" style="shape=partialRectangle;collapsible=0;dropTarget=0;pointerEvents=0;fillColor=none;top=0;left=0;bottom=1;right=0;points=[[0,0.5],[1,0.5]];portConstraint=eastwest;" vertex="1" parent="592">
                    <mxGeometry y="30" width="240" height="40" as="geometry"/>
                </mxCell>
                <mxCell id="594" value="PK" style="shape=partialRectangle;connectable=0;fillColor=none;top=0;left=0;bottom=0;right=0;fontStyle=1;overflow=hidden;fontSize=15;" vertex="1" parent="593">
                    <mxGeometry width="30" height="40" as="geometry"/>
                </mxCell>
                <mxCell id="595" value="予約明細ID" style="shape=partialRectangle;connectable=0;fillColor=none;top=0;left=0;bottom=0;right=0;align=left;spacingLeft=6;fontStyle=5;overflow=hidden;fontSize=15;" vertex="1" parent="593">
                    <mxGeometry x="30" width="210" height="40" as="geometry"/>
                </mxCell>
                <mxCell id="596" value="" style="shape=partialRectangle;collapsible=0;dropTarget=0;pointerEvents=0;fillColor=none;top=0;left=0;bottom=0;right=0;points=[[0,0.5],[1,0.5]];portConstraint=eastwest;" vertex="1" parent="592">
                    <mxGeometry y="70" width="240" height="30" as="geometry"/>
                </mxCell>
                <mxCell id="597" value="FK" style="shape=partialRectangle;connectable=0;fillColor=none;top=0;left=0;bottom=0;right=0;editable=1;overflow=hidden;fontSize=15;" vertex="1" parent="596">
                    <mxGeometry width="30" height="30" as="geometry"/>
                </mxCell>
                <mxCell id="598" value="予約ID        reserve_id" style="shape=partialRectangle;connectable=0;fillColor=none;top=0;left=0;bottom=0;right=0;align=left;spacingLeft=6;overflow=hidden;fontSize=15;" vertex="1" parent="596">
                    <mxGeometry x="30" width="210" height="30" as="geometry"/>
                </mxCell>
                <mxCell id="599" value="" style="shape=partialRectangle;collapsible=0;dropTarget=0;pointerEvents=0;fillColor=none;top=0;left=0;bottom=0;right=0;points=[[0,0.5],[1,0.5]];portConstraint=eastwest;" vertex="1" parent="592">
                    <mxGeometry y="100" width="240" height="30" as="geometry"/>
                </mxCell>
                <mxCell id="600" value="FK" style="shape=partialRectangle;connectable=0;fillColor=none;top=0;left=0;bottom=0;right=0;editable=1;overflow=hidden;fontSize=15;" vertex="1" parent="599">
                    <mxGeometry width="30" height="30" as="geometry"/>
                </mxCell>
                <mxCell id="601" value="部屋ID        room_id" style="shape=partialRectangle;connectable=0;fillColor=none;top=0;left=0;bottom=0;right=0;align=left;spacingLeft=6;overflow=hidden;fontSize=15;" vertex="1" parent="599">
                    <mxGeometry x="30" width="210" height="30" as="geometry"/>
                </mxCell>
                <mxCell id="602" value="" style="shape=partialRectangle;collapsible=0;dropTarget=0;pointerEvents=0;fillColor=none;top=0;left=0;bottom=0;right=0;points=[[0,0.5],[1,0.5]];portConstraint=eastwest;" vertex="1" parent="592">
                    <mxGeometry y="130" width="240" height="30" as="geometry"/>
                </mxCell>
                <mxCell id="603" value="" style="shape=partialRectangle;connectable=0;fillColor=none;top=0;left=0;bottom=0;right=0;editable=1;overflow=hidden;" vertex="1" parent="602">
                    <mxGeometry width="30" height="30" as="geometry"/>
                </mxCell>
                <mxCell id="604" value="宿泊日        day" style="shape=partialRectangle;connectable=0;fillColor=none;top=0;left=0;bottom=0;right=0;align=left;spacingLeft=6;overflow=hidden;fontSize=15;" vertex="1" parent="602">
                    <mxGeometry x="30" width="210" height="30" as="geometry"/>
                </mxCell>
                <mxCell id="605" value="" style="shape=partialRectangle;collapsible=0;dropTarget=0;pointerEvents=0;fillColor=none;top=0;left=0;bottom=0;right=0;points=[[0,0.5],[1,0.5]];portConstraint=eastwest;" vertex="1" parent="592">
                    <mxGeometry y="160" width="240" height="30" as="geometry"/>
                </mxCell>
                <mxCell id="606" value="" style="shape=partialRectangle;connectable=0;fillColor=none;top=0;left=0;bottom=0;right=0;editable=1;overflow=hidden;" vertex="1" parent="605">
                    <mxGeometry width="30" height="30" as="geometry"/>
                </mxCell>
                <mxCell id="607" value="宿泊料        price" style="shape=partialRectangle;connectable=0;fillColor=none;top=0;left=0;bottom=0;right=0;align=left;spacingLeft=6;overflow=hidden;fontSize=15;" vertex="1" parent="605">
                    <mxGeometry x="30" width="210" height="30" as="geometry"/>
                </mxCell>
                <mxCell id="608" value="部屋 rooms" style="shape=table;startSize=30;container=1;collapsible=1;childLayout=tableLayout;fixedRows=1;rowLines=0;fontStyle=1;align=center;resizeLast=1;fontSize=20;" vertex="1" parent="1">
                    <mxGeometry x="490" y="390" width="280" height="130" as="geometry"/>
                </mxCell>
                <mxCell id="609" value="" style="shape=partialRectangle;collapsible=0;dropTarget=0;pointerEvents=0;fillColor=none;top=0;left=0;bottom=1;right=0;points=[[0,0.5],[1,0.5]];portConstraint=eastwest;" vertex="1" parent="608">
                    <mxGeometry y="30" width="280" height="40" as="geometry"/>
                </mxCell>
                <mxCell id="610" value="PK" style="shape=partialRectangle;connectable=0;fillColor=none;top=0;left=0;bottom=0;right=0;fontStyle=1;overflow=hidden;fontSize=15;" vertex="1" parent="609">
                    <mxGeometry width="30" height="40" as="geometry"/>
                </mxCell>
                <mxCell id="611" value="部屋ID" style="shape=partialRectangle;connectable=0;fillColor=none;top=0;left=0;bottom=0;right=0;align=left;spacingLeft=6;fontStyle=5;overflow=hidden;fontSize=15;" vertex="1" parent="609">
                    <mxGeometry x="30" width="250" height="40" as="geometry"/>
                </mxCell>
                <mxCell id="612" value="" style="shape=partialRectangle;collapsible=0;dropTarget=0;pointerEvents=0;fillColor=none;top=0;left=0;bottom=0;right=0;points=[[0,0.5],[1,0.5]];portConstraint=eastwest;" vertex="1" parent="608">
                    <mxGeometry y="70" width="280" height="30" as="geometry"/>
                </mxCell>
                <mxCell id="613" value="FK" style="shape=partialRectangle;connectable=0;fillColor=none;top=0;left=0;bottom=0;right=0;editable=1;overflow=hidden;fontSize=15;" vertex="1" parent="612">
                    <mxGeometry width="30" height="30" as="geometry"/>
                </mxCell>
                <mxCell id="614" value="部屋種別ID       room_kinds_id" style="shape=partialRectangle;connectable=0;fillColor=none;top=0;left=0;bottom=0;right=0;align=left;spacingLeft=6;overflow=hidden;fontSize=15;" vertex="1" parent="612">
                    <mxGeometry x="30" width="250" height="30" as="geometry"/>
                </mxCell>
                <mxCell id="615" value="" style="shape=partialRectangle;collapsible=0;dropTarget=0;pointerEvents=0;fillColor=none;top=0;left=0;bottom=0;right=0;points=[[0,0.5],[1,0.5]];portConstraint=eastwest;" vertex="1" parent="608">
                    <mxGeometry y="100" width="280" height="30" as="geometry"/>
                </mxCell>
                <mxCell id="616" value="" style="shape=partialRectangle;connectable=0;fillColor=none;top=0;left=0;bottom=0;right=0;editable=1;overflow=hidden;" vertex="1" parent="615">
                    <mxGeometry width="30" height="30" as="geometry"/>
                </mxCell>
                <mxCell id="617" value="部屋番号           room_number" style="shape=partialRectangle;connectable=0;fillColor=none;top=0;left=0;bottom=0;right=0;align=left;spacingLeft=6;overflow=hidden;fontSize=15;" vertex="1" parent="615">
                    <mxGeometry x="30" width="250" height="30" as="geometry"/>
                </mxCell>
                <mxCell id="621" value="部屋種別マスタ masutas" style="shape=table;startSize=30;container=1;collapsible=1;childLayout=tableLayout;fixedRows=1;rowLines=0;fontStyle=1;align=center;resizeLast=1;fontSize=20;" vertex="1" parent="1">
                    <mxGeometry x="-190" y="395" width="310" height="130" as="geometry"/>
                </mxCell>
                <mxCell id="622" value="" style="shape=partialRectangle;collapsible=0;dropTarget=0;pointerEvents=0;fillColor=none;top=0;left=0;bottom=1;right=0;points=[[0,0.5],[1,0.5]];portConstraint=eastwest;" vertex="1" parent="621">
                    <mxGeometry y="30" width="310" height="30" as="geometry"/>
                </mxCell>
                <mxCell id="623" value="PK" style="shape=partialRectangle;connectable=0;fillColor=none;top=0;left=0;bottom=0;right=0;fontStyle=1;overflow=hidden;fontSize=15;" vertex="1" parent="622">
                    <mxGeometry width="30" height="30" as="geometry"/>
                </mxCell>
                <mxCell id="624" value="部屋種別ID" style="shape=partialRectangle;connectable=0;fillColor=none;top=0;left=0;bottom=0;right=0;align=left;spacingLeft=6;fontStyle=5;overflow=hidden;fontSize=15;" vertex="1" parent="622">
                    <mxGeometry x="30" width="280" height="30" as="geometry"/>
                </mxCell>
                <mxCell id="625" value="" style="shape=partialRectangle;collapsible=0;dropTarget=0;pointerEvents=0;fillColor=none;top=0;left=0;bottom=0;right=0;points=[[0,0.5],[1,0.5]];portConstraint=eastwest;" vertex="1" parent="621">
                    <mxGeometry y="60" width="310" height="30" as="geometry"/>
                </mxCell>
                <mxCell id="626" value="" style="shape=partialRectangle;connectable=0;fillColor=none;top=0;left=0;bottom=0;right=0;editable=1;overflow=hidden;" vertex="1" parent="625">
                    <mxGeometry width="30" height="30" as="geometry"/>
                </mxCell>
                <mxCell id="627" value="名称                        room_name" style="shape=partialRectangle;connectable=0;fillColor=none;top=0;left=0;bottom=0;right=0;align=left;spacingLeft=6;overflow=hidden;fontSize=15;" vertex="1" parent="625">
                    <mxGeometry x="30" width="280" height="30" as="geometry"/>
                </mxCell>
                <mxCell id="628" value="" style="shape=partialRectangle;collapsible=0;dropTarget=0;pointerEvents=0;fillColor=none;top=0;left=0;bottom=0;right=0;points=[[0,0.5],[1,0.5]];portConstraint=eastwest;" vertex="1" parent="621">
                    <mxGeometry y="90" width="310" height="30" as="geometry"/>
                </mxCell>
                <mxCell id="629" value="" style="shape=partialRectangle;connectable=0;fillColor=none;top=0;left=0;bottom=0;right=0;editable=1;overflow=hidden;" vertex="1" parent="628">
                    <mxGeometry width="30" height="30" as="geometry"/>
                </mxCell>
                <mxCell id="630" value="宿泊可能人数          able_people" style="shape=partialRectangle;connectable=0;fillColor=none;top=0;left=0;bottom=0;right=0;align=left;spacingLeft=6;overflow=hidden;fontSize=15;" vertex="1" parent="628">
                    <mxGeometry x="30" width="280" height="30" as="geometry"/>
                </mxCell>
                <mxCell id="639" value="" style="endArrow=classic;html=1;fontSize=30;" edge="1" parent="1">
                    <mxGeometry relative="1" as="geometry">
                        <mxPoint x="-150" y="770" as="sourcePoint"/>
                        <mxPoint x="10" y="770" as="targetPoint"/>
                    </mxGeometry>
                </mxCell>
                <mxCell id="642" value="" style="endArrow=classic;html=1;fontSize=30;" edge="1" parent="1">
                    <mxGeometry relative="1" as="geometry">
                        <mxPoint x="340" y="770" as="sourcePoint"/>
                        <mxPoint x="490" y="770" as="targetPoint"/>
                        <Array as="points">
                            <mxPoint x="450" y="770"/>
                        </Array>
                    </mxGeometry>
                </mxCell>
                <mxCell id="643" value="" style="endArrow=classic;html=1;fontSize=30;entryX=0.5;entryY=0;entryDx=0;entryDy=0;" edge="1" parent="1" target="592">
                    <mxGeometry relative="1" as="geometry">
                        <mxPoint x="610" y="520" as="sourcePoint"/>
                        <mxPoint x="610" y="710" as="targetPoint"/>
                        <Array as="points">
                            <mxPoint x="609.5" y="575"/>
                        </Array>
                    </mxGeometry>
                </mxCell>
                <mxCell id="644" value="" style="endArrow=classic;html=1;fontSize=30;" edge="1" parent="1">
                    <mxGeometry relative="1" as="geometry">
                        <mxPoint x="120" y="440" as="sourcePoint"/>
                        <mxPoint x="490" y="440" as="targetPoint"/>
                    </mxGeometry>
                </mxCell>
                <mxCell id="648" value="Actor" style="shape=umlActor;verticalLabelPosition=bottom;verticalAlign=top;html=1;outlineConnect=0;fontSize=5;" vertex="1" parent="1">
                    <mxGeometry x="280" y="380" width="30" height="60" as="geometry"/>
                </mxCell>
                <mxCell id="649" value="Actor" style="shape=umlActor;verticalLabelPosition=bottom;verticalAlign=top;html=1;outlineConnect=0;fontSize=5;" vertex="1" parent="1">
                    <mxGeometry x="-80" y="700" width="30" height="60" as="geometry"/>
                </mxCell>
                <mxCell id="650" value="Actor" style="shape=umlActor;verticalLabelPosition=bottom;verticalAlign=top;html=1;outlineConnect=0;fontSize=5;" vertex="1" parent="1">
                    <mxGeometry x="390" y="710" width="30" height="60" as="geometry"/>
                </mxCell>
            </root>
        </mxGraphModel>
    </diagram>
</mxfile>